<svg width="550" height="700" viewBox="0 0 550 700" fill="none" xmlns="http://www.w3.org/2000/svg">
<g clip-path="url(#clip0)">
<rect width="550" height="700" fill="white"/>
<path opacity="0.65" d="M460.672 -47.1243L492.603 194.55L260.897 92.5743L460.672 -47.1243Z" fill="#919AF3"/>
<path opacity="0.65" d="M69.0129 247.882L124.587 304.474L195.159 269.171L158.934 339.45L214.509 396.041L136.546 382.884L100.322 453.162L88.363 374.752L10.4007 361.595L80.9719 326.292L69.0129 247.882Z" fill="#81A4FF"/>
<path opacity="0.65" d="M435.649 618.132L472.907 603.295L470.255 563.486L495.933 594.124L533.19 579.287L511.802 613.06L537.48 643.698L498.584 633.933L477.197 667.706L474.545 627.898L435.649 618.132Z" fill="#919AF3"/>
<path opacity="0.65" d="M4.40796 23C-28.3353 192.064 128.263 267.203 245 125.594L4.40796 23Z" fill="#F6EB88"/>
<path opacity="0.65" d="M401.366 700C428.362 562.457 299.248 501.326 203 616.533L401.366 700Z" fill="#B3ED97"/>
<rect opacity="0.65" x="355.257" y="258.769" width="191.311" height="116.849" transform="rotate(90.4321 355.257 258.769)" fill="#F6EB88"/>
<path opacity="0.65" fill-rule="evenodd" clip-rule="evenodd" d="M182.018 542.336C180.586 540.712 179.082 539.129 177.505 537.592C144.305 505.233 91.559 505.502 59.695 538.195C27.8309 570.887 28.9146 623.623 62.1154 655.982C71.2096 664.846 81.7702 671.261 92.9665 675.233C69.3883 640.588 71.4517 594.371 100.304 564.769C121.822 542.692 152.96 535.273 182.018 542.336Z" fill="#919AF3"/>
<path opacity="0.65" fill-rule="evenodd" clip-rule="evenodd" d="M430.707 518.825C433.521 518.967 436.363 519.002 439.228 518.924C499.545 517.297 547.114 466.734 545.475 405.989C543.836 345.244 493.611 297.319 433.293 298.946C416.771 299.392 401.206 303.509 387.347 310.502C441.074 320.175 482.36 365.05 483.844 420.054C484.95 461.075 463.647 497.665 430.707 518.825Z" fill="#B3ED97"/>
</g>
<defs>
<clipPath id="clip0">
<rect width="550" height="700" fill="white"/>
</clipPath>
</defs>
</svg>
